<svg width="51" height="42" viewBox="0 0 51 42" fill="none" xmlns="http://www.w3.org/2000/svg">
<path d="M23.2495 38.8683C33.3262 38.8683 41.495 30.664 41.495 20.5435C41.495 10.423 33.3262 2.2187 23.2495 2.2187C13.1729 2.2187 5.00409 10.423 5.00409 20.5435C5.00409 30.664 13.1729 38.8683 23.2495 38.8683Z" fill="#0B3D91"/>
<path d="M22.1723 5.94391C22.2852 5.94391 22.3768 5.85194 22.3768 5.73848C22.3768 5.62502 22.2852 5.53304 22.1723 5.53304C22.0593 5.53304 21.9677 5.62502 21.9677 5.73848C21.9677 5.85194 22.0593 5.94391 22.1723 5.94391Z" fill="white"/>
<path d="M24.2723 6.21782C24.3852 6.21782 24.4768 6.12585 24.4768 6.01239C24.4768 5.89893 24.3852 5.80695 24.2723 5.80695C24.1593 5.80695 24.0677 5.89893 24.0677 6.01239C24.0677 6.12585 24.1593 6.21782 24.2723 6.21782Z" fill="white"/>
<path d="M27.0268 9.94304C27.1398 9.94304 27.2314 9.85107 27.2314 9.73761C27.2314 9.62415 27.1398 9.53217 27.0268 9.53217C26.9139 9.53217 26.8223 9.62415 26.8223 9.73761C26.8223 9.85107 26.9139 9.94304 27.0268 9.94304Z" fill="white"/>
<path d="M11.9177 29.117C12.0307 29.117 12.1223 29.025 12.1223 28.9115C12.1223 28.7981 12.0307 28.7061 11.9177 28.7061C11.8048 28.7061 11.7132 28.7981 11.7132 28.9115C11.7132 29.025 11.8048 29.117 11.9177 29.117Z" fill="white"/>
<path d="M12.4495 30.7604C12.5625 30.7604 12.6541 30.6685 12.6541 30.555C12.6541 30.4415 12.5625 30.3496 12.4495 30.3496C12.3366 30.3496 12.245 30.4415 12.245 30.555C12.245 30.6685 12.3366 30.7604 12.4495 30.7604Z" fill="white"/>
<path d="M9.91318 29.3119C9.99778 29.3119 10.0664 29.243 10.0664 29.158C10.0664 29.0731 9.99778 29.0042 9.91318 29.0042C9.82858 29.0042 9.76 29.0731 9.76 29.158C9.76 29.243 9.82858 29.3119 9.91318 29.3119Z" fill="white"/>
<path d="M18.2314 32.5409C18.3162 32.5409 18.385 32.4718 18.385 32.3866C18.385 32.3013 18.3162 32.2323 18.2314 32.2323C18.1465 32.2323 18.0777 32.3013 18.0777 32.3866C18.0777 32.4718 18.1465 32.5409 18.2314 32.5409Z" fill="white"/>
<path d="M31.2777 29.8186C31.3623 29.8186 31.4309 29.7498 31.4309 29.6648C31.4309 29.5798 31.3623 29.5109 31.2777 29.5109C31.1931 29.5109 31.1245 29.5798 31.1245 29.6648C31.1245 29.7498 31.1931 29.8186 31.2777 29.8186Z" fill="white"/>
<path d="M35.0691 25.683C35.1539 25.683 35.2227 25.6139 35.2227 25.5287C35.2227 25.4435 35.1539 25.3744 35.0691 25.3744C34.9842 25.3744 34.9155 25.4435 34.9155 25.5287C34.9155 25.6139 34.9842 25.683 35.0691 25.683Z" fill="white"/>
<path d="M16.4859 11.093C16.5705 11.093 16.6391 11.0241 16.6391 10.9392C16.6391 10.8542 16.5705 10.7853 16.4859 10.7853C16.4013 10.7853 16.3327 10.8542 16.3327 10.9392C16.3327 11.0241 16.4013 11.093 16.4859 11.093Z" fill="white"/>
<path d="M20.6586 8.01515C20.7432 8.01515 20.8118 7.94627 20.8118 7.86131C20.8118 7.77634 20.7432 7.70746 20.6586 7.70746C20.574 7.70746 20.5055 7.77634 20.5055 7.86131C20.5055 7.94627 20.574 8.01515 20.6586 8.01515Z" fill="white"/>
<path d="M20.2055 7.71385C20.2901 7.71385 20.3586 7.64497 20.3586 7.56C20.3586 7.47503 20.2901 7.40615 20.2055 7.40615C20.1209 7.40615 20.0523 7.47503 20.0523 7.56C20.0523 7.64497 20.1209 7.71385 20.2055 7.71385Z" fill="white"/>
<path d="M19.7964 7.41254C19.881 7.41254 19.9496 7.34366 19.9496 7.25869C19.9496 7.17372 19.881 7.10484 19.7964 7.10484C19.7118 7.10484 19.6432 7.17372 19.6432 7.25869C19.6432 7.34366 19.7118 7.41254 19.7964 7.41254Z" fill="white"/>
<path d="M17.1405 11.8878C17.2251 11.8878 17.2936 11.8189 17.2936 11.734C17.2936 11.649 17.2251 11.5801 17.1405 11.5801C17.0559 11.5801 16.9873 11.649 16.9873 11.734C16.9873 11.8189 17.0559 11.8878 17.1405 11.8878Z" fill="white"/>
<path d="M23.2868 3.87906C23.3714 3.87906 23.44 3.81018 23.44 3.72522C23.44 3.64025 23.3714 3.57137 23.2868 3.57137C23.2022 3.57137 23.1336 3.64025 23.1336 3.72522C23.1336 3.81018 23.2022 3.87906 23.2868 3.87906Z" fill="white"/>
<path d="M24.2964 8.31645C24.381 8.31645 24.4495 8.24757 24.4495 8.16261C24.4495 8.07764 24.381 8.00876 24.2964 8.00876C24.2118 8.00876 24.1432 8.07764 24.1432 8.16261C24.1432 8.24757 24.2118 8.31645 24.2964 8.31645Z" fill="white"/>
<path d="M22.7041 7.44998C22.7887 7.44998 22.8573 7.3811 22.8573 7.29613C22.8573 7.21116 22.7887 7.14228 22.7041 7.14228C22.6195 7.14228 22.5509 7.21116 22.5509 7.29613C22.5509 7.3811 22.6195 7.44998 22.7041 7.44998Z" fill="white"/>
<path d="M19.9768 8.62826C20.0614 8.62826 20.13 8.55938 20.13 8.47441C20.13 8.38944 20.0614 8.32056 19.9768 8.32056C19.8922 8.32056 19.8236 8.38944 19.8236 8.47441C19.8236 8.55938 19.8922 8.62826 19.9768 8.62826Z" fill="white"/>
<path d="M32.0041 33.883C32.0887 33.883 32.1573 33.8142 32.1573 33.7292C32.1573 33.6442 32.0887 33.5753 32.0041 33.5753C31.9195 33.5753 31.8509 33.6442 31.8509 33.7292C31.8509 33.8142 31.9195 33.883 32.0041 33.883Z" fill="white"/>
<path d="M11.6586 30.1067C11.7435 30.1067 11.8123 30.0376 11.8123 29.9524C11.8123 29.8672 11.7435 29.7981 11.6586 29.7981C11.5738 29.7981 11.505 29.8672 11.505 29.9524C11.505 30.0376 11.5738 30.1067 11.6586 30.1067Z" fill="white"/>
<path d="M22.3223 32.0926C22.4071 32.0926 22.4759 32.0235 22.4759 31.9383C22.4759 31.853 22.4071 31.784 22.3223 31.784C22.2374 31.784 22.1686 31.853 22.1686 31.9383C22.1686 32.0235 22.2374 32.0926 22.3223 32.0926Z" fill="white"/>
<path d="M14.8323 29.9834C14.9171 29.9834 14.9859 29.9143 14.9859 29.8291C14.9859 29.7439 14.9171 29.6748 14.8323 29.6748C14.7474 29.6748 14.6786 29.7439 14.6786 29.8291C14.6786 29.9143 14.7474 29.9834 14.8323 29.9834Z" fill="white"/>
<path d="M16.1586 32.1579C16.2435 32.1579 16.3123 32.0888 16.3123 32.0035C16.3123 31.9183 16.2435 31.8492 16.1586 31.8492C16.0738 31.8492 16.005 31.9183 16.005 32.0035C16.005 32.0888 16.0738 32.1579 16.1586 32.1579Z" fill="white"/>
<path d="M25.9223 30.7878C26.0069 30.7878 26.0755 30.7189 26.0755 30.634C26.0755 30.549 26.0069 30.4801 25.9223 30.4801C25.8377 30.4801 25.7691 30.549 25.7691 30.634C25.7691 30.7189 25.8377 30.7878 25.9223 30.7878Z" fill="white"/>
<path d="M31.305 27.7369C31.3896 27.7369 31.4582 27.668 31.4582 27.583C31.4582 27.4981 31.3896 27.4292 31.305 27.4292C31.2204 27.4292 31.1518 27.4981 31.1518 27.583C31.1518 27.668 31.2204 27.7369 31.305 27.7369Z" fill="white"/>
<path d="M35.3859 29.6095C35.4705 29.6095 35.5391 29.5407 35.5391 29.4557C35.5391 29.3707 35.4705 29.3018 35.3859 29.3018C35.3013 29.3018 35.2327 29.3707 35.2327 29.4557C35.2327 29.5407 35.3013 29.6095 35.3859 29.6095Z" fill="white"/>
<path d="M36.7768 30.5034C36.8614 30.5034 36.93 30.4345 36.93 30.3496C36.93 30.2646 36.8614 30.1957 36.7768 30.1957C36.6922 30.1957 36.6236 30.2646 36.6236 30.3496C36.6236 30.4345 36.6922 30.5034 36.7768 30.5034Z" fill="white"/>
<path d="M37.0055 28.0656C37.0901 28.0656 37.1586 27.9967 37.1586 27.9117C37.1586 27.8268 37.0901 27.7579 37.0055 27.7579C36.9209 27.7579 36.8523 27.8268 36.8523 27.9117C36.8523 27.9967 36.9209 28.0656 37.0055 28.0656Z" fill="white"/>
<path d="M16.7141 24.6143C16.7987 24.6143 16.8673 24.5454 16.8673 24.4604C16.8673 24.3755 16.7987 24.3066 16.7141 24.3066C16.6295 24.3066 16.5609 24.3755 16.5609 24.4604C16.5609 24.5454 16.6295 24.6143 16.7141 24.6143Z" fill="white"/>
<path d="M16.7723 28.1994C16.8852 28.1994 16.9768 28.1074 16.9768 27.9939C16.9768 27.8805 16.8852 27.7885 16.7723 27.7885C16.6593 27.7885 16.5677 27.8805 16.5677 27.9939C16.5677 28.1074 16.6593 28.1994 16.7723 28.1994Z" fill="white"/>
<path d="M17.9995 30.8015C18.1125 30.8015 18.2041 30.7095 18.2041 30.5961C18.2041 30.4826 18.1125 30.3907 17.9995 30.3907C17.8866 30.3907 17.795 30.4826 17.795 30.5961C17.795 30.7095 17.8866 30.8015 17.9995 30.8015Z" fill="white"/>
<path d="M32.6995 28.0898C32.8125 28.0898 32.9041 27.9978 32.9041 27.8843C32.9041 27.7709 32.8125 27.6789 32.6995 27.6789C32.5866 27.6789 32.495 27.7709 32.495 27.8843C32.495 27.9978 32.5866 28.0898 32.6995 28.0898Z" fill="white"/>
<path d="M37.9905 27.7885C38.1034 27.7885 38.195 27.6965 38.195 27.583C38.195 27.4696 38.1034 27.3776 37.9905 27.3776C37.8775 27.3776 37.7859 27.4696 37.7859 27.583C37.7859 27.6965 37.8775 27.7885 37.9905 27.7885Z" fill="white"/>
<path d="M35.3723 26.6654C35.4852 26.6654 35.5768 26.5735 35.5768 26.46C35.5768 26.3465 35.4852 26.2546 35.3723 26.2546C35.2593 26.2546 35.1677 26.3465 35.1677 26.46C35.1677 26.5735 35.2593 26.6654 35.3723 26.6654Z" fill="white"/>
<path d="M32.6995 26.775C32.8125 26.775 32.9041 26.683 32.9041 26.5696C32.9041 26.4561 32.8125 26.3641 32.6995 26.3641C32.5866 26.3641 32.495 26.4561 32.495 26.5696C32.495 26.683 32.5866 26.775 32.6995 26.775Z" fill="white"/>
<path d="M27.1864 5.60974L27.695 5.56089L27.1873 5.53213C27.1714 5.43352 27.0927 5.35637 26.9936 5.34359L26.945 4.83502L26.9159 5.3477C26.8241 5.36824 26.7536 5.44539 26.7423 5.54126L26.2223 5.58874L26.7459 5.61704C26.765 5.70515 26.8359 5.77409 26.925 5.79052L26.9723 6.31461L27 5.79144C27.0941 5.77546 27.1686 5.70287 27.1864 5.60974Z" fill="white"/>
<path d="M18.6018 11.2971L19.1105 11.2482L18.6027 11.2195C18.5873 11.1209 18.5082 11.0437 18.4091 11.0309L18.3605 10.5224L18.3318 11.035C18.2395 11.0556 18.1691 11.1327 18.1577 11.2286L17.6377 11.2761L18.1614 11.3044C18.1805 11.3925 18.2514 11.4614 18.3405 11.4779L18.3877 12.002L18.4159 11.4788C18.51 11.4633 18.5845 11.3902 18.6018 11.2971Z" fill="white"/>
<path d="M37.6177 26.334L38.1264 26.2851L37.6186 26.2564C37.6032 26.1578 37.5241 26.0806 37.425 26.0678L37.3764 25.5593L37.3477 26.072C37.2559 26.0925 37.1855 26.1697 37.1741 26.2655L36.6541 26.313L37.1777 26.3413C37.1968 26.4294 37.2677 26.4983 37.3568 26.5148L37.4041 27.0389L37.4323 26.5157C37.5255 26.5002 37.6 26.4276 37.6177 26.334Z" fill="white"/>
<path d="M16.8836 34.1962L17.3923 34.1474L16.8845 34.1186C16.8686 34.02 16.79 33.9428 16.6909 33.9301L16.6423 33.422L16.6136 33.9342C16.5214 33.9547 16.4509 34.0319 16.4395 34.1277L15.9195 34.1752L16.4432 34.2035C16.4623 34.2916 16.5332 34.361 16.6223 34.377L16.6695 34.9011L16.6977 34.3779C16.7914 34.3624 16.8664 34.2893 16.8836 34.1962Z" fill="white"/>
<path d="M36.0018 30.3614L36.5105 30.3126L36.0027 30.2838C35.9873 30.1852 35.9082 30.1081 35.8091 30.0953L35.7605 29.5867L35.7318 30.0989C35.64 30.1195 35.5695 30.1966 35.5582 30.2925L35.0382 30.34L35.5618 30.3683C35.5809 30.4564 35.6518 30.5253 35.7409 30.5418L35.7882 31.0658L35.8164 30.5427C35.9095 30.5276 35.9845 30.4546 36.0018 30.3614Z" fill="white"/>
<path d="M27.5764 16.154C25.455 16.9822 23.3859 17.7213 21.64 18.27C18.0923 19.3857 8.38546 22.4061 2.52182 26.2135L3.01273 26.4052C6.58546 24.3783 8.90773 23.7414 11.14 23.0361C13.5673 22.2691 21.4141 20.4248 24.9673 19.4204C26.1677 19.0812 27.5736 18.637 29.0627 18.0965C28.7164 17.6112 28.3509 17.1246 27.9664 16.6388C27.8377 16.475 27.7073 16.3133 27.5764 16.154ZM30.1682 19.7418C29.6545 20.0902 29.2241 20.3682 28.9227 20.5435C27.1773 21.557 18.6677 27.3913 16.7318 28.7335C14.7959 30.0757 9.42273 35.1704 7.84091 36.6496L7.78637 37.2517C12.8864 32.65 14.4864 31.5151 16.5136 29.9661C19.0227 28.0487 24.2132 24.5015 25.9773 23.3648C27.6636 22.2783 29.1846 21.2789 30.5496 20.3645C30.5273 20.3271 30.505 20.2897 30.4827 20.2518C30.38 20.0824 30.275 19.9126 30.1682 19.7418ZM38.1405 11.2852C35.6559 12.7479 31.74 14.5133 27.9409 16.0111C28.0318 16.123 28.1223 16.2357 28.2123 16.3494C28.6368 16.8863 29.0373 17.4268 29.4141 17.9678C32.4005 16.863 35.6773 15.3802 38.2773 13.5856C37.0386 14.7644 32.9436 17.8381 30.4468 19.5515C30.5755 19.7619 30.7 19.9724 30.8205 20.1819C34.6032 17.6395 37.1486 15.7683 38.6318 14.5169C40.6773 12.7913 45.3409 8.92911 47.1136 3.75215C44.0041 7.72435 40.3277 9.99737 38.1405 11.2852Z" fill="#FC3D21"/>
<path d="M20.9018 25.0808C20.4995 24.5723 19.9432 23.8912 19.5255 23.363C18.9668 22.6567 18.45 21.9432 17.9764 21.2305C17.8218 21.2693 17.6677 21.3082 17.5136 21.347C18.0855 22.2431 18.7205 23.1379 19.4123 24.0126C19.9177 24.6517 20.3773 25.1662 20.6127 25.4862C20.6605 25.5511 20.755 25.6944 20.8827 25.8852C21.03 25.7848 21.1786 25.6835 21.3286 25.5812C21.1836 25.4228 21.0405 25.2562 20.9018 25.0808ZM23.8382 27.7579C23.5077 27.4438 22.7064 26.9193 21.8723 26.1322C21.6882 26.2591 21.5023 26.3879 21.3159 26.5175C21.8545 27.2799 22.5882 28.2162 23.1627 28.4892C24.0282 28.901 24.2614 28.1605 23.8382 27.7579ZM28.2123 16.3494C23.4432 10.3206 17.6173 7.00852 15.1055 9.01311C13.1545 10.5698 13.9555 15.1195 16.6445 19.8989C16.7836 19.8509 16.9214 19.8039 17.0577 19.7573C14.3436 15.1008 13.6009 10.7735 15.4409 9.30483C17.7532 7.45957 23.3364 10.7844 27.9673 16.6384C28.9259 17.85 29.7686 19.0662 30.4823 20.2518C33.215 24.7942 34.0536 28.9019 32.1655 30.5787C31.5877 31.0919 29.8223 31.2932 27.5095 30.2478C27.4773 30.2884 27.5291 30.3984 27.5695 30.4254C29.5659 31.2316 31.4782 31.5388 32.4436 30.7687C34.7636 28.917 32.9814 22.3782 28.2123 16.3494Z" fill="white"/>
<path d="M7.75864 17.0648H10.8132L13.3768 21.4337C13.3768 21.4337 13.3768 18.27 13.3768 18.0235C13.3768 17.64 12.8927 17.1401 12.7223 17.0648C12.9268 17.0648 14.7132 17.0648 14.8359 17.0648C14.7064 17.099 14.2905 17.6058 14.2905 18.0235C14.2905 18.2289 14.2905 22.817 14.2905 23.0361C14.2905 23.3442 14.7336 23.7688 14.945 23.9331H11.9995L9.395 19.5437C9.395 19.5437 9.395 22.817 9.395 22.995C9.395 23.3374 9.72909 23.6661 10.0768 23.9468H7.82682C8.14727 23.8099 8.45409 23.3785 8.48136 23.0361C8.50864 22.6937 8.48136 18.2768 8.48136 18.0851C8.48136 17.6674 8.07909 17.325 7.75864 17.0648Z" fill="white"/>
<path d="M35.6996 23.9331H39.7632C39.5382 23.8784 39.2859 23.6113 39.1495 23.2552C39.0132 22.8991 36.8586 17.0648 36.8586 17.0648H35.3136C34.8755 17.3816 34.4059 17.7158 33.9045 18.0678C33.9032 18.0805 33.9018 18.0933 33.8995 18.1057C33.8323 18.5165 32.6232 22.9146 32.5496 23.132C32.4473 23.4333 31.9223 23.7688 31.7109 23.9468H33.8995C33.6814 23.7003 33.5041 23.4607 33.545 23.1867C33.5859 22.9128 33.7086 22.365 33.7086 22.365H35.9723C36.0746 22.6389 36.1509 22.885 36.1905 23.1183C36.2382 23.399 35.9518 23.714 35.6996 23.9331ZM33.9132 21.4885L34.6768 18.9822L35.6859 21.4885H33.9132ZM33.5691 17.315C33.6814 17.2319 33.7941 17.1483 33.9064 17.0648H33.3132C33.3723 17.1196 33.47 17.2058 33.5691 17.315Z" fill="white"/>
<path d="M18.0268 23.1867C18.0677 22.9128 18.1905 22.365 18.1905 22.365H20.4541C20.5564 22.6389 20.6327 22.885 20.6723 23.1183C20.72 23.399 20.4336 23.714 20.1814 23.9331H23.7591C23.8336 23.8829 23.9077 23.8327 23.9818 23.783C23.8432 23.6597 23.7155 23.4748 23.6314 23.2552C23.495 22.8991 21.3405 17.0648 21.3405 17.0648H17.795C17.9655 17.2223 18.4564 17.6468 18.3814 18.1057C18.3145 18.5165 17.105 22.9146 17.0314 23.132C16.9291 23.4333 16.4041 23.7688 16.1927 23.9468H18.3814C18.1632 23.7003 17.9859 23.4607 18.0268 23.1867ZM19.1586 18.9822L20.1677 21.4885H18.395L19.1586 18.9822Z" fill="white"/>
<path d="M30.3855 20.4741C29.7182 20.9206 29.0141 21.3867 28.2723 21.8733C28.605 22.0354 28.87 22.239 28.8955 22.502C28.9427 22.9959 27.9546 23.2347 27.0614 23.132C26.8827 23.1114 26.7073 23.0644 26.54 23.0014C26.3545 23.1215 26.1673 23.2424 25.9773 23.3648C25.7841 23.4894 25.5496 23.6428 25.2818 23.8199V24.5289C25.4591 24.1797 25.8468 23.867 26.1477 23.851C26.2773 23.8441 26.7273 24.2619 28.5818 24.1591C29.4818 24.1094 31.2205 23.1457 31.1932 22.0363C31.1768 21.3807 30.8359 20.8694 30.3855 20.4741ZM25.2814 22.187V22.9092C25.4455 22.7992 25.6073 22.691 25.7659 22.5855C25.5164 22.4111 25.3396 22.2481 25.2814 22.187ZM29.7514 20.0208C29.5786 19.918 29.4036 19.8281 29.2359 19.7487C28.3632 19.3378 27.4496 19.2625 27.2586 18.7078C27.1241 18.3166 27.5041 17.9545 28.4314 17.9682C29.3586 17.9819 30.2177 18.5366 30.4496 18.7352V16.9685C30.3814 17.0369 30.0823 17.3816 29.8086 17.3245C29.2836 17.215 28.3905 17.0721 27.3677 17.078C26.195 17.0849 25.1859 17.9952 25.1518 19.1461C25.1041 20.7553 26.3859 21.1936 27.1086 21.4469C27.1832 21.473 27.2682 21.5008 27.3605 21.5305C28.0536 21.0776 28.6018 20.7288 28.9227 20.543C29.1382 20.4184 29.4205 20.2394 29.7514 20.0208Z" fill="white"/>
</svg>
